<svg width="523" height="512" viewBox="0 0 523 512" fill="none" xmlns="http://www.w3.org/2000/svg">
<path d="M288.5 314.5C333.793 314.5 370.5 277.334 370.5 231.5C370.5 185.666 333.793 148.5 288.5 148.5C243.207 148.5 206.5 185.666 206.5 231.5C206.5 277.334 243.207 314.5 288.5 314.5Z" stroke="#D07D30"/>
<path d="M409.609 210.511C425.925 270.603 376 346 306.5 353" stroke="black"/>
<path d="M409.81 210.537L515 167.5" stroke="black"/>
<path d="M309.5 353L309.5 465.004" stroke="black"/>
<path d="M515 168.5C551.5 314 450 452 310 462.5" stroke="black"/>
<path d="M176 182C221 82 362.5 93.5 401 182" stroke="black"/>
<line x1="175.815" y1="182.465" x2="72.8151" y2="141.465" stroke="black"/>
<line x1="400.81" y1="181.537" x2="500.81" y2="140.537" stroke="black"/>
<path d="M72 142.5C158.5 -51.5 426.5 -41 502.5 142.5" stroke="black"/>
<path d="M165 211C157.822 268.135 182.5 333.5 264.5 353" stroke="black"/>
<line x1="166.815" y1="211.465" x2="63.8151" y2="170.465" stroke="black"/>
<path d="M262 353V463" stroke="black"/>
<path d="M262 463.5C104 435 27.5 301.5 65.0506 170" stroke="black"/>
</svg>
